<svg width="20" height="20" viewBox="0 0 16 16" fill="none" xmlns="http://www.w3.org/2000/svg" class="icon_fill__d0-3F"><path fill-rule="evenodd" clip-rule="evenodd" d="M2.53851 3.95731L3.2903 3.2002L12.7436 12.6642L11.9918 13.416L10.163 11.5871C9.44855 11.8644 8.67544 12.0244 7.865 12.0244C5.19909 12.0244 2.9224 10.3662 2 8.02549C2.41055 6.97512 3.09835 6.06871 3.96744 5.38624L2.53851 3.95731ZM10.5309 8.0261C10.5309 6.55451 9.33655 5.36019 7.86497 5.36019C7.59305 5.36019 7.33179 5.41351 7.08119 5.48815L5.92419 4.33115C6.53735 4.13387 7.18783 4.02723 7.86497 4.02723C10.5309 4.02723 12.8076 5.68543 13.73 8.02076C13.3621 8.95916 12.7756 9.78026 12.0345 10.4361L10.4029 8.80454C10.4776 8.55928 10.5309 8.29802 10.5309 8.0261ZM7.86507 10.6904C6.39349 10.6904 5.19916 9.49605 5.19916 8.02447C5.19916 7.61392 5.29513 7.22469 5.46042 6.88346L6.29751 7.72055C6.28152 7.81653 6.26552 7.91783 6.26552 8.02447C6.26552 8.90955 6.97999 9.62401 7.86507 9.62401C7.97171 9.62401 8.06768 9.60802 8.16898 9.58669L9.00608 10.4238C8.65951 10.5944 8.27562 10.6904 7.86507 10.6904ZM9.44852 7.8501C9.36854 7.10365 8.78204 6.52248 8.04092 6.4425L9.44852 7.8501Z" fill="currentColor" fill-opacity="0.54"></path></svg>