<svg width="20" height="20" viewBox="0 0 20 20" fill="none" xmlns="http://www.w3.org/2000/svg"><path d="M9.16667 5.41667H10.8333V13.75H9.16667V5.41667ZM12.5 8.75H14.1667V13.75H12.5V8.75ZM5.83333 10.4167H7.5V13.75H5.83333V10.4167ZM12.5 2.91667H4.16667V16.25H15.8333V6.25H12.5V2.91667ZM2.5 2.07667C2.5 1.62 2.8725 1.25 3.3325 1.25H13.3333L17.5 5.41667V17.0775C17.5008 17.1869 17.48 17.2955 17.4388 17.3969C17.3976 17.4982 17.3369 17.5905 17.2601 17.6685C17.1832 17.7464 17.0918 17.8084 16.991 17.851C16.8902 17.8936 16.7819 17.9159 16.6725 17.9167H3.3275C3.10865 17.9151 2.89918 17.8276 2.74435 17.6729C2.58951 17.5182 2.50175 17.3088 2.5 17.09V2.07667Z" fill="currentColor"></path></svg>