<svg width="14" height="14" viewBox="0 0 16 16" fill="none" xmlns="http://www.w3.org/2000/svg"><path d="M2.66634 5.33203H13.333V13.9987C13.333 14.1755 13.2628 14.3451 13.1377 14.4701C13.0127 14.5951 12.8432 14.6654 12.6663 14.6654H3.33301C3.1562 14.6654 2.98663 14.5951 2.8616 14.4701C2.73658 14.3451 2.66634 14.1755 2.66634 13.9987V5.33203ZM3.99967 6.66536V13.332H11.9997V6.66536H3.99967ZM5.99967 7.9987H7.33301V11.9987H5.99967V7.9987ZM8.66634 7.9987H9.99967V11.9987H8.66634V7.9987ZM4.66634 3.33203V1.9987C4.66634 1.82189 4.73658 1.65232 4.8616 1.52729C4.98663 1.40227 5.1562 1.33203 5.33301 1.33203H10.6663C10.8432 1.33203 11.0127 1.40227 11.1377 1.52729C11.2628 1.65232 11.333 1.82189 11.333 1.9987V3.33203H14.6663V4.66536H1.33301V3.33203H4.66634ZM5.99967 2.66536V3.33203H9.99967V2.66536H5.99967Z" fill="currentColor"></path></svg>