<svg width="28" height="28" viewBox="0 0 28 28" fill="none" xmlns="http://www.w3.org/2000/svg">
    <g clip-path="url(#clip0)">
        <path d="M21.0455 0H5.52836C4.96148 0.00170745 4.41832 0.222056 4.01748 0.612933C3.61663 1.00381 3.39067 1.53346 3.38892 2.08624V25.9138C3.39067 26.4665 3.61663 26.9962 4.01748 27.3871C4.41832 27.7779 4.96148 27.9983 5.52836 28H25.8605C26.4274 27.9983 26.9706 27.7779 27.3714 27.3871C27.7723 26.9962 27.9982 26.4665 28 25.9138V6.78312L21.0455 0Z"
              fill="#E9FFE9"/>
        <path d="M21.0459 4.69364C21.0476 5.24657 21.2736 5.77639 21.6744 6.16753C22.0752 6.55866 22.6183 6.77937 23.1853 6.7815H27.9987L21.0459 0V4.69364Z"
              fill="#97DD97"/>
        <path d="M2.48214 17.1895H22.8563C24.5111 17.1895 25.3385 17.8289 25.3385 19.1078V24.2234C25.3385 25.5023 24.5111 26.1418 22.8563 26.1418H2.48214C0.827379 26.1418 0 25.5023 0 24.2234V19.1078C0 17.8289 0.827379 17.1895 2.48214 17.1895Z"
              fill="#65CE65"/>
        <path d="M4.44015 24.0472V19.7936H3.83084V20.2802C3.48757 19.8439 3.10996 19.7433 2.64654 19.7433C2.21745 19.7433 1.83985 19.8859 1.61672 20.104C1.19621 20.5151 1.10181 21.1528 1.10181 21.8239C1.10181 22.4951 1.19621 23.1327 1.61672 23.5438C1.83985 23.762 2.20887 23.913 2.63796 23.913C3.0928 23.913 3.47899 23.8039 3.82226 23.3761V24.0221C3.82226 24.7268 3.47899 25.2889 2.66371 25.2889C2.17454 25.2889 1.95999 25.1463 1.65105 24.8778L1.2477 25.2638C1.69396 25.6581 2.04581 25.8175 2.68087 25.8175C3.78793 25.8175 4.44015 25.0708 4.44015 24.0472ZM3.82226 21.8239C3.82226 22.5958 3.69353 23.3677 2.77527 23.3677C1.85701 23.3677 1.7197 22.5958 1.7197 21.8239C1.7197 21.0521 1.85701 20.2802 2.77527 20.2802C3.69353 20.2802 3.82226 21.0521 3.82226 21.8239Z"
              fill="white"/>
        <path d="M8.3618 22.0169V21.74C8.3618 20.5151 7.71816 19.7433 6.62826 19.7433C5.55553 19.7433 4.89473 20.5235 4.89473 21.8575C4.89473 23.3173 5.62418 23.9717 6.73983 23.9717C7.46071 23.9717 7.85547 23.7536 8.28457 23.3341L7.86405 22.9733C7.52936 23.3005 7.24616 23.4432 6.75699 23.4432C5.9503 23.4432 5.51262 22.923 5.51262 22.0169H8.3618ZM7.74391 21.5639H5.51262C5.52978 21.2283 5.54695 21.1024 5.64135 20.8759C5.8044 20.4983 6.18201 20.255 6.62826 20.255C7.07452 20.255 7.45212 20.4983 7.61518 20.8759C7.70958 21.1024 7.72674 21.2283 7.74391 21.5639Z"
              fill="white"/>
        <path d="M12.0458 21.8575C12.0458 21.2199 11.96 20.641 11.5309 20.2131C11.2391 19.9278 10.8357 19.7433 10.3208 19.7433C9.8059 19.7433 9.40256 19.9278 9.11077 20.2131C8.68168 20.641 8.59586 21.2199 8.59586 21.8575C8.59586 22.4951 8.68168 23.074 9.11077 23.5019C9.40256 23.7872 9.8059 23.9717 10.3208 23.9717C10.8357 23.9717 11.2391 23.7872 11.5309 23.5019C11.96 23.074 12.0458 22.4951 12.0458 21.8575ZM11.4279 21.8575C11.4279 22.3189 11.4021 22.8307 11.0932 23.1327C10.8958 23.3257 10.6212 23.4348 10.3208 23.4348C10.0204 23.4348 9.75441 23.3257 9.55703 23.1327C9.24808 22.8307 9.21375 22.3189 9.21375 21.8575C9.21375 21.3961 9.24808 20.8843 9.55703 20.5822C9.75441 20.3893 10.0204 20.2802 10.3208 20.2802C10.6212 20.2802 10.8958 20.3893 11.0932 20.5822C11.4021 20.8843 11.4279 21.3961 11.4279 21.8575Z"
              fill="white"/>
        <path d="M13.1723 18.619V17.9395H12.4772V18.619H13.1723ZM13.1294 24.6681V19.8188H12.5115V24.6429C12.5115 25.0456 12.3742 25.247 11.9451 25.247H11.6104V25.7755H12.0567C12.7947 25.7755 13.1294 25.2973 13.1294 24.6681Z"
              fill="white"/>
        <path d="M16.8705 22.7133C16.8705 21.9414 16.3642 21.6645 15.6262 21.5974L14.9482 21.5387C14.4161 21.4967 14.2101 21.287 14.2101 20.9346C14.2101 20.5151 14.5363 20.255 15.1542 20.255C15.5918 20.255 15.978 20.3557 16.2784 20.5822L16.6817 20.1879C16.3041 19.8859 15.7635 19.7433 15.1627 19.7433C14.2616 19.7433 13.6094 20.1963 13.6094 20.9514C13.6094 21.631 14.0471 21.9917 14.8709 22.0589L15.5661 22.1176C16.0552 22.1595 16.2698 22.3609 16.2698 22.7216C16.2698 23.2083 15.8407 23.4516 15.1456 23.4516C14.6221 23.4516 14.1672 23.3173 13.8325 22.9733L13.4206 23.3761C13.884 23.8123 14.4419 23.9717 15.1542 23.9717C16.1754 23.9717 16.8705 23.5103 16.8705 22.7133Z"
              fill="white"/>
        <path d="M20.45 21.8575C20.45 21.2199 20.3642 20.641 19.9351 20.2131C19.6433 19.9278 19.2399 19.7433 18.725 19.7433C18.2101 19.7433 17.8068 19.9278 17.515 20.2131C17.0859 20.641 17.0001 21.2199 17.0001 21.8575C17.0001 22.4951 17.0859 23.074 17.515 23.5019C17.8068 23.7872 18.2101 23.9717 18.725 23.9717C19.2399 23.9717 19.6433 23.7872 19.9351 23.5019C20.3642 23.074 20.45 22.4951 20.45 21.8575ZM19.8321 21.8575C19.8321 22.3189 19.8063 22.8307 19.4974 23.1327C19.3 23.3257 19.0254 23.4348 18.725 23.4348C18.4246 23.4348 18.1586 23.3257 17.9612 23.1327C17.6523 22.8307 17.618 22.3189 17.618 21.8575C17.618 21.3961 17.6523 20.8843 17.9612 20.5822C18.1586 20.3893 18.4246 20.2802 18.725 20.2802C19.0254 20.2802 19.3 20.3893 19.4974 20.5822C19.8063 20.8843 19.8321 21.3961 19.8321 21.8575Z"
              fill="white"/>
        <path d="M24.2369 23.9214V21.2786C24.2369 20.8004 24.0996 20.4144 23.7992 20.1292C23.5418 19.8775 23.1728 19.7433 22.7179 19.7433C22.2459 19.7433 21.834 19.9111 21.5336 20.2467V19.7936H20.9157V23.9214H21.5336V21.3793C21.5336 20.6578 21.9456 20.2802 22.5806 20.2802C23.2157 20.2802 23.619 20.6494 23.619 21.3793V23.9214H24.2369Z"
              fill="white"/>
        <path d="M7.49072 4.86914H17.6568V6.26105H7.49072V4.86914ZM7.49072 7.94105H17.6568V9.33296H7.49072V7.94105ZM7.49072 11.013H21.0444V12.4049H7.49072V11.013ZM7.49072 14.0865H24.0768V15.4784H7.49072V14.0865Z"
              fill="#97DD97"/>
    </g>
    <defs>
        <clipPath id="clip0">
            <rect width="28" height="28" fill="white"/>
        </clipPath>
    </defs>
</svg>
