<svg width="16" height="16" viewBox="0 0 16 16" fill="none" xmlns="http://www.w3.org/2000/svg"><path d="M13.3882 10.1327L14.1896 10.6134C14.239 10.643 14.2799 10.6849 14.3083 10.735C14.3368 10.7851 14.3517 10.8418 14.3517 10.8994C14.3517 10.957 14.3368 11.0136 14.3083 11.0638C14.2799 11.1139 14.239 11.1558 14.1896 11.1854L8.34291 14.6934C8.23922 14.7557 8.12054 14.7886 7.99958 14.7886C7.87861 14.7886 7.75993 14.7557 7.65624 14.6934L1.80958 11.1854C1.76014 11.1558 1.71922 11.1139 1.69081 11.0638C1.6624 11.0136 1.64746 10.957 1.64746 10.8994C1.64746 10.8418 1.6624 10.7851 1.69081 10.735C1.71922 10.6849 1.76014 10.643 1.80958 10.6134L2.61091 10.1327L7.99958 13.3661L13.3882 10.1327ZM13.3882 6.9994L14.1896 7.48006C14.239 7.50966 14.2799 7.55156 14.3083 7.60169C14.3368 7.65181 14.3517 7.70844 14.3517 7.76606C14.3517 7.82368 14.3368 7.88031 14.3083 7.93044C14.2799 7.98056 14.239 8.02247 14.1896 8.05206L7.99958 11.7661L1.80958 8.05206C1.76014 8.02247 1.71922 7.98056 1.69081 7.93044C1.6624 7.88031 1.64746 7.82368 1.64746 7.76606C1.64746 7.70844 1.6624 7.65181 1.69081 7.60169C1.71922 7.55156 1.76014 7.50966 1.80958 7.48006L2.61091 6.9994L7.99958 10.2327L13.3882 6.9994ZM8.34224 0.872062L14.1896 4.38006C14.239 4.40966 14.2799 4.45156 14.3083 4.50169C14.3368 4.55181 14.3517 4.60844 14.3517 4.66606C14.3517 4.72368 14.3368 4.78031 14.3083 4.83044C14.2799 4.88056 14.239 4.92247 14.1896 4.95206L7.99958 8.66606L1.80958 4.95206C1.76014 4.92247 1.71922 4.88056 1.69081 4.83044C1.6624 4.78031 1.64746 4.72368 1.64746 4.66606C1.64746 4.60844 1.6624 4.55181 1.69081 4.50169C1.71922 4.45156 1.76014 4.40966 1.80958 4.38006L7.65624 0.872062C7.75993 0.809766 7.87861 0.776855 7.99958 0.776855C8.12054 0.776855 8.23922 0.809766 8.34291 0.872062H8.34224ZM7.99958 2.22073L3.92424 4.66606L7.99958 7.1114L12.0749 4.66606L7.99958 2.22073Z" fill="currentColor"></path></svg>