<svg width="20" height="20" viewBox="0 0 20 20" fill="none" xmlns="http://www.w3.org/2000/svg"><path d="M3.52386 5.91806V15.6891L7.38304 14.0357L11.9546 16.3215L15.7148 14.7085V4.93822L16.7076 4.51306C16.7655 4.48821 16.8288 4.47814 16.8916 4.48376C16.9544 4.48938 17.0149 4.51051 17.0675 4.54525C17.1201 4.57999 17.1633 4.62726 17.1932 4.68282C17.2231 4.73837 17.2387 4.80048 17.2386 4.86355V15.7142L11.9051 18L7.33352 15.7142L2.53107 17.7722C2.47309 17.797 2.40986 17.8071 2.34703 17.8015C2.28421 17.7959 2.22376 17.7747 2.17112 17.74C2.11848 17.7053 2.07528 17.658 2.04542 17.6024C2.01555 17.5469 1.99994 17.4848 2 17.4217V6.57104L3.52386 5.91806ZM12.8522 9.80391L9.61931 13.036L6.38644 9.80391C5.74717 9.16453 5.31184 8.34995 5.13551 7.46317C4.95918 6.57639 5.04975 5.65724 5.39579 4.82194C5.74182 3.98663 6.32778 3.2727 7.07955 2.7704C7.83133 2.2681 8.71517 2 9.61931 2C10.5234 2 11.4073 2.2681 12.1591 2.7704C12.9108 3.2727 13.4968 3.98663 13.8428 4.82194C14.1889 5.65724 14.2794 6.57639 14.1031 7.46317C13.9268 8.34995 13.4915 9.16453 12.8522 9.80391ZM9.61931 10.8813L11.774 8.72578C12.2004 8.29958 12.4907 7.75653 12.6084 7.16531C12.7261 6.57408 12.6658 5.96124 12.4351 5.40429C12.2045 4.84733 11.8138 4.37129 11.3126 4.03636C10.8114 3.70143 10.2221 3.52266 9.61931 3.52266C9.01649 3.52266 8.4272 3.70143 7.92599 4.03636C7.42477 4.37129 7.03414 4.84733 6.80349 5.40429C6.57284 5.96124 6.51254 6.57408 6.63021 7.16531C6.74789 7.75653 7.03824 8.29958 7.46457 8.72578L9.61931 10.8813Z" fill="currentColor"></path></svg>