<svg width="20" height="20" viewBox="0 0 16 16" fill="none" xmlns="http://www.w3.org/2000/svg" class="icon_hover__6xBWK"><path fill-rule="evenodd" clip-rule="evenodd" d="M7.86667 4C5.2 4 2.92267 5.65867 2 8C2.92267 10.3413 5.2 12 7.86667 12C10.5333 12 12.8107 10.3413 13.7333 8C12.8107 5.65867 10.5333 4 7.86667 4ZM7.86665 10.6667C6.39465 10.6667 5.19998 9.472 5.19998 8C5.19998 6.528 6.39465 5.33333 7.86665 5.33333C9.33865 5.33333 10.5333 6.528 10.5333 8C10.5333 9.472 9.33865 10.6667 7.86665 10.6667ZM6.26666 8.00017C6.26666 7.11484 6.98132 6.40017 7.86666 6.40017C8.75199 6.40017 9.46666 7.11484 9.46666 8.00017C9.46666 8.88551 8.75199 9.60017 7.86666 9.60017C6.98132 9.60017 6.26666 8.88551 6.26666 8.00017Z" fill="currentColor"></path></svg>